<svg xmlns="http://www.w3.org/2000/svg" xmlns:xlink="http://www.w3.org/1999/xlink" xmlns:lucid="lucid" width="2634.57" height="2042"><g transform="translate(496.07433333333336 521)" lucid:page-tab-id="0_0"><path d="M680-494a6 6 0 0 1 6-6h308a6 6 0 0 1 6 6v1568a6 6 0 0 1-6 6H686a6 6 0 0 1-6-6z" stroke="#282c33" stroke-width="2" fill-opacity="0"/><use xlink:href="#a" transform="matrix(1,0,0,1,688,-492) translate(61.38271604938271 17.77777777777778)"/><use xlink:href="#b" transform="matrix(1,0,0,1,688,-492) translate(113.1111111111111 17.77777777777778)"/><path d="M-340.25-140.25c0 10.9-8.84 19.75-19.75 19.75-10.9 0-19.75-8.84-19.75-19.75 0-10.9 8.84-19.75 19.75-19.75 10.9 0 19.75 8.84 19.75 19.75z" stroke="#282c33" stroke-width="2" fill="#fff"/><path d="M-360-120.5v49.3a20.7 20.7 0 0 0 3.2 11.07L-320-2m-40-63.2L-400-2m0-98.75h80" stroke="#282c33" stroke-width="2" fill="none"/><path d="M-400-154a6 6 0 0 1 6-6h68a6 6 0 0 1 6 6V14a6 6 0 0 1-6 6h-68a6 6 0 0 1-6-6z" fill="none"/><use xlink:href="#c" transform="matrix(1,0,0,1,-480,-2) translate(14.629629629629648 17.77777777777778)"/><use xlink:href="#d" transform="matrix(1,0,0,1,-480,-2) translate(94.81481481481482 17.77777777777778)"/><path d="M-340.25 739.75c0 10.9-8.84 19.75-19.75 19.75-10.9 0-19.75-8.84-19.75-19.75 0-10.9 8.84-19.75 19.75-19.75 10.9 0 19.75 8.84 19.75 19.75z" stroke="#282c33" stroke-width="2" fill="#fff"/><path d="M-360 759.5v49.3a20.7 20.7 0 0 0 3.2 11.07L-320 878m-40-63.2l-40 63.2m0-98.75h80" stroke="#282c33" stroke-width="2" fill="none"/><path d="M-400 726a6 6 0 0 1 6-6h68a6 6 0 0 1 6 6v168a6 6 0 0 1-6 6h-68a6 6 0 0 1-6-6z" fill="none"/><use xlink:href="#e" transform="matrix(1,0,0,1,-480,878) translate(5.925666666666643 15.644480000000001)"/><use xlink:href="#f" transform="matrix(1,0,0,1,-480,878) translate(62.69122777777776 15.644480000000001)"/><use xlink:href="#g" transform="matrix(1,0,0,1,-480,878) translate(149.44204222222223 15.644480000000001)"/><path d="M2079.75 739.75c0 10.9-8.84 19.75-19.75 19.75-10.9 0-19.75-8.84-19.75-19.75 0-10.9 8.84-19.75 19.75-19.75 10.9 0 19.75 8.84 19.75 19.75z" stroke="#282c33" stroke-width="2" fill="#fff"/><path d="M2060 759.5v49.3a20.7 20.7 0 0 0 3.2 11.07L2100 878m-40-63.2l-40 63.2m0-98.75h80" stroke="#282c33" stroke-width="2" fill="none"/><path d="M2020 726a6 6 0 0 1 6-6h68a6 6 0 0 1 6 6v168a6 6 0 0 1-6 6h-68a6 6 0 0 1-6-6z" fill="none"/><use xlink:href="#h" transform="matrix(1,0,0,1,1940,878) translate(62.71604938271605 17.77777777777778)"/><use xlink:href="#i" transform="matrix(1,0,0,1,1940,878) translate(130.49382716049382 17.77777777777778)"/><path d="M240-420c0 33.14-35.82 60-80 60s-80-26.86-80-60 35.82-60 80-60 80 26.86 80 60z" stroke="#282c33" stroke-width="2" fill="#6db1ff"/><use xlink:href="#j" transform="matrix(1,0,0,1,80,-480) translate(16.07999999999999 63.15)"/><use xlink:href="#k" transform="matrix(1,0,0,1,80,-480) translate(59.029999999999994 63.15)"/><path d="M920-378.46c0 33.56-35.82 60.77-80 60.77s-80-27.2-80-60.76 35.82-60.77 80-60.77 80 27.2 80 60.77z" stroke="#282c33" stroke-width="2" fill="#ff80df"/><use xlink:href="#l" transform="matrix(1,0,0,1,760,-439.2307692307692) translate(25.555 63.9625)"/><use xlink:href="#m" transform="matrix(1,0,0,1,760,-439.2307692307692) translate(99.555 63.9625)"/><path d="M920-155.64c0 33.56-35.82 60.77-80 60.77s-80-27.2-80-60.77c0-33.56 35.82-60.77 80-60.77s80 27.2 80 60.76z" stroke="#282c33" stroke-width="2" fill="#ff80df"/><use xlink:href="#n" transform="matrix(1,0,0,1,760,-216.4102564102564) translate(61.55499999999999 44.9)"/><use xlink:href="#o" transform="matrix(1,0,0,1,760,-216.4102564102564) translate(27.07999999999999 66.5)"/><use xlink:href="#m" transform="matrix(1,0,0,1,760,-216.4102564102564) translate(62.55500000000001 88.10000000000001)"/><path d="M920 290c0 33.56-35.82 60.77-80 60.77s-80-27.2-80-60.77c0-33.56 35.82-60.77 80-60.77s80 27.2 80 60.77z" stroke="#282c33" stroke-width="2" fill="#ff80df"/><use xlink:href="#p" transform="matrix(1,0,0,1,760,229.23076923076923) translate(12.604999999999999 63.9625)"/><use xlink:href="#q" transform="matrix(1,0,0,1,760,229.23076923076923) translate(50.555 63.9625)"/><use xlink:href="#m" transform="matrix(1,0,0,1,760,229.23076923076923) translate(112.505 63.9625)"/><path d="M920 67.18c0 33.56-35.82 60.77-80 60.77s-80-27.2-80-60.77c0-33.56 35.82-60.77 80-60.77s80 27.22 80 60.78z" stroke="#282c33" stroke-width="2" fill="#ff80df"/><use xlink:href="#r" transform="matrix(1,0,0,1,760,6.410256410256416) translate(68.53 44.9)"/><use xlink:href="#o" transform="matrix(1,0,0,1,760,6.410256410256416) translate(27.07999999999999 66.5)"/><use xlink:href="#m" transform="matrix(1,0,0,1,760,6.410256410256416) translate(62.55500000000001 88.10000000000001)"/><path d="M-279.6-140.3L28.74-390.88M-279.6-140.32l-.4.32" stroke="#3a414a" fill="none"/><path d="M39.22-399.37l-5.35 14L24.4-397z" stroke="#3a414a" fill="#3a414a"/><path d="M920 512.82c0 33.56-35.82 60.77-80 60.77s-80-27.22-80-60.78 35.82-60.77 80-60.77 80 27.2 80 60.77z" stroke="#282c33" stroke-width="2" fill="#ff80df"/><use xlink:href="#s" transform="matrix(1,0,0,1,760,452.05128205128216) translate(24.62999999999999 52.525)"/><use xlink:href="#t" transform="matrix(1,0,0,1,760,452.05128205128216) translate(75.53 52.525)"/><use xlink:href="#m" transform="matrix(1,0,0,1,760,452.05128205128216) translate(62.555 74.125)"/><path d="M920 735.64c0 33.56-35.82 60.77-80 60.77s-80-27.2-80-60.76 35.82-60.77 80-60.77 80 27.2 80 60.77z" stroke="#282c33" stroke-width="2" fill="#ff80df"/><use xlink:href="#u" transform="matrix(1,0,0,1,760,674.8717948717949) translate(17.630000000000003 63.9625)"/><use xlink:href="#v" transform="matrix(1,0,0,1,760,674.8717948717949) translate(62.63 63.9625)"/><use xlink:href="#w" transform="matrix(1,0,0,1,760,674.8717948717949) translate(105.48 63.9625)"/><path d="M920 958.46c0 33.56-35.82 60.77-80 60.77s-80-27.2-80-60.77c0-33.56 35.82-60.77 80-60.77s80 27.2 80 60.76z" stroke="#282c33" stroke-width="2" fill="#ff80df"/><use xlink:href="#x" transform="matrix(1,0,0,1,760,897.6923076923078) translate(47.58 63.9625)"/><use xlink:href="#w" transform="matrix(1,0,0,1,760,897.6923076923078) translate(75.53 63.9625)"/><path d="M240-200c0 33.14-35.82 60-80 60s-80-26.86-80-60 35.82-60 80-60 80 26.86 80 60z" stroke="#282c33" stroke-width="2" fill="#6db1ff"/><use xlink:href="#y" transform="matrix(1,0,0,1,80,-260) translate(15.054999999999987 63.15)"/><use xlink:href="#z" transform="matrix(1,0,0,1,80,-260) translate(80.005 63.15)"/><path d="M240 20c0 33.14-35.82 60-80 60S80 53.14 80 20s35.82-60 80-60 80 26.86 80 60z" stroke="#282c33" stroke-width="2" fill="#6db1ff"/><use xlink:href="#A" transform="matrix(1,0,0,1,80,-40) translate(47.55499999999999 63.15)"/><path d="M240 240c0 33.14-35.82 60-80 60s-80-26.86-80-60 35.82-60 80-60 80 26.86 80 60z" stroke="#282c33" stroke-width="2" fill="#6db1ff"/><use xlink:href="#B" transform="matrix(1,0,0,1,80,180) translate(28.57999999999999 63.15)"/><path d="M240 700c0 33.14-35.82 60-80 60s-80-26.86-80-60 35.82-60 80-60 80 26.86 80 60z" stroke="#282c33" stroke-width="2" fill="#54c45e"/><use xlink:href="#C" transform="matrix(1,0,0,1,80,640) translate(42.529999999999994 51.9)"/><use xlink:href="#D" transform="matrix(1,0,0,1,80,640) translate(48.55499999999999 73.5)"/><path d="M240 920c0 33.14-35.82 60-80 60s-80-26.86-80-60 35.82-60 80-60 80 26.86 80 60z" stroke="#282c33" stroke-width="2" fill="#54c45e"/><use xlink:href="#E" transform="matrix(1,0,0,1,80,860) translate(22.07999999999999 63.15)"/><use xlink:href="#F" transform="matrix(1,0,0,1,80,860) translate(92.03 63.15)"/><path d="M240 1140c0 33.14-35.82 60-80 60s-80-26.86-80-60 35.82-60 80-60 80 26.86 80 60z" stroke="#282c33" stroke-width="2" fill="#54c45e"/><use xlink:href="#G" transform="matrix(1,0,0,1,80,1080) translate(18.604999999999997 63.15)"/><use xlink:href="#H" transform="matrix(1,0,0,1,80,1080) translate(53.555 63.15)"/><path d="M240 480c0 33.14-35.82 60-80 60s-80-26.86-80-60 35.82-60 80-60 80 26.86 80 60z" stroke="#282c33" stroke-width="2" fill="#54c45e"/><use xlink:href="#I" transform="matrix(1,0,0,1,80,420) translate(23.104999999999997 63.15)"/><use xlink:href="#F" transform="matrix(1,0,0,1,80,420) translate(91.00500000000001 63.15)"/><path d="M1660 180c0 33.14-35.82 60-80 60s-80-26.86-80-60 35.82-60 80-60 80 26.86 80 60z" stroke="#282c33" stroke-width="2" fill="#ffe342"/><use xlink:href="#J" transform="matrix(1,0,0,1,1500,120) translate(53.05499999999999 48.15)"/><use xlink:href="#K" transform="matrix(1,0,0,1,1500,120) translate(11.554999999999987 69.75)"/><use xlink:href="#L" transform="matrix(1,0,0,1,1500,120) translate(119.455 69.75)"/><path d="M1660 1440c0 33.14-35.82 60-80 60s-80-26.86-80-60 35.82-60 80-60 80 26.86 80 60z" stroke="#282c33" stroke-width="2" fill="#ffe342"/><use xlink:href="#M" transform="matrix(1,0,0,1,1500,1380) translate(36.58 48.15)"/><use xlink:href="#K" transform="matrix(1,0,0,1,1500,1380) translate(11.554999999999987 69.75)"/><use xlink:href="#L" transform="matrix(1,0,0,1,1500,1380) translate(119.455 69.75)"/><path d="M-279.52-100.15l305.7-95.53M-279.5-100.15l-.5.15" stroke="#3a414a" fill="none"/><path d="M39.05-199.7l-10.17 11.03L24.4-203z" stroke="#3a414a" fill="#3a414a"/><path d="M-279.5-39.9L15.76 17.24M-279.5-39.9l-.5-.1" stroke="#3a414a" fill="none"/><path d="M29.02 19.8l-14.18 4.9L17.7 9.98z" stroke="#3a414a" fill="#3a414a"/><path d="M-279.57 40.26L7.57 212.54M-279.56 40.26L-280 40" stroke="#3a414a" fill="none"/><path d="M19.14 219.5l-15-.27 7.72-12.86z" stroke="#3a414a" fill="#3a414a"/><path d="M-279.6 719.72l307.66-211.5M-279.58 719.7l-.42.3" stroke="#3a414a" fill="none"/><path d="M39.18 500.57l-6.46 13.54-8.5-12.35z" stroke="#3a414a" fill="#3a414a"/><path d="M-279.5 779.88L25.93 703.5M-279.5 779.88l-.5.12" stroke="#3a414a" fill="none"/><path d="M39.03 700.24l-10.78 10.43-3.64-14.55z" stroke="#3a414a" fill="#3a414a"/><path d="M-279.52 820.15l295.73 95.4M-279.5 820.16l-.5-.16" stroke="#3a414a" fill="none"/><path d="M29.05 919.7l-14.67 3.14 4.6-14.27z" stroke="#3a414a" fill="#3a414a"/><path d="M-279.58 920.28L7.94 1111.96M-279.57 920.28l-.43-.28" stroke="#3a414a" fill="none"/><path d="M19.17 1119.44l-14.97-.96 8.32-12.48z" stroke="#3a414a" fill="#3a414a"/><path d="M280.26 899.58l352.1-567.27M280.27 899.56l-.27.44" stroke="#3a414a" fill="none"/><path d="M639.47 320.85l-.48 15-12.75-7.92z" stroke="#3a414a" fill="#3a414a"/><path d="M1060.48 279.88l385.46-96.37M1060.5 279.88l-.5.12" stroke="#3a414a" fill="none"/><path d="M1459.03 180.24l-10.78 10.43-3.64-14.55z" stroke="#3a414a" fill="#3a414a"/><path d="M1700.27 240.42l292.05 467.3M1700.27 240.44l-.27-.44" stroke="#3a414a" fill="none"/><path d="M1999.47 719.15l-13.25-7.04 12.72-7.94z" stroke="#3a414a" fill="#3a414a"/><path d="M1999.7 960.4l-291 388M1999.7 960.4l.3-.4" stroke="#3a414a" fill="none"/><path d="M1700.6 1359.2l1.8-14.9 12 9z" stroke="#3a414a" fill="#3a414a"/><path d="M1439.54 1419.82L293.47 965.34M1439.52 1419.8l.48.2" stroke="#3a414a" fill="none"/><path d="M280.93 960.37l14.84-2.2-5.53 13.96z" stroke="#3a414a" fill="#3a414a"/><defs><path fill="#3a414a" d="M205 0l-28-72H64L36 0H1l101-248h38L239 0h-34zm-38-99l-47-123c-12 45-31 82-46 123h93" id="N"/><path fill="#3a414a" d="M24 0v-261h32V0H24" id="O"/><path fill="#3a414a" d="M100-194c63 0 86 42 84 106H49c0 40 14 67 53 68 26 1 43-12 49-29l28 8c-11 28-37 45-77 45C44 4 14-33 15-96c1-61 26-98 85-98zm52 81c6-60-76-77-97-28-3 7-6 17-6 28h103" id="P"/><path fill="#3a414a" d="M114-163C36-179 61-72 57 0H25l-1-190h30c1 12-1 29 2 39 6-27 23-49 58-41v29" id="Q"/><path fill="#3a414a" d="M59-47c-2 24 18 29 38 22v24C64 9 27 4 27-40v-127H5v-23h24l9-43h21v43h35v23H59v120" id="R"/><g id="a"><use transform="matrix(0.06172839506172839,0,0,0.06172839506172839,0,0)" xlink:href="#N"/><use transform="matrix(0.06172839506172839,0,0,0.06172839506172839,14.814814814814813,0)" xlink:href="#O"/><use transform="matrix(0.06172839506172839,0,0,0.06172839506172839,19.691358024691354,0)" xlink:href="#P"/><use transform="matrix(0.06172839506172839,0,0,0.06172839506172839,32.03703703703703,0)" xlink:href="#Q"/><use transform="matrix(0.06172839506172839,0,0,0.06172839506172839,39.38271604938271,0)" xlink:href="#R"/></g><path fill="#3a414a" d="M240 0l2-218c-23 76-54 145-80 218h-23L58-218 59 0H30v-248h44l77 211c21-75 51-140 76-211h43V0h-30" id="S"/><path fill="#3a414a" d="M141-36C126-15 110 5 73 4 37 3 15-17 15-53c-1-64 63-63 125-63 3-35-9-54-41-54-24 1-41 7-42 31l-33-3c5-37 33-52 76-52 45 0 72 20 72 64v82c-1 20 7 32 28 27v20c-31 9-61-2-59-35zM48-53c0 20 12 33 32 33 41-3 63-29 60-74-43 2-92-5-92 41" id="T"/><path fill="#3a414a" d="M117-194c89-4 53 116 60 194h-32v-121c0-31-8-49-39-48C34-167 62-67 57 0H25l-1-190h30c1 10-1 24 2 32 11-22 29-35 61-36" id="U"/><path fill="#3a414a" d="M177-190C167-65 218 103 67 71c-23-6-38-20-44-43l32-5c15 47 100 32 89-28v-30C133-14 115 1 83 1 29 1 15-40 15-95c0-56 16-97 71-98 29-1 48 16 59 35 1-10 0-23 2-32h30zM94-22c36 0 50-32 50-73 0-42-14-75-50-75-39 0-46 34-46 75s6 73 46 73" id="V"/><path fill="#3a414a" d="M210-169c-67 3-38 105-44 169h-31v-121c0-29-5-50-35-48C34-165 62-65 56 0H25l-1-190h30c1 10-1 24 2 32 10-44 99-50 107 0 11-21 27-35 58-36 85-2 47 119 55 194h-31v-121c0-29-5-49-35-48" id="W"/><g id="b"><use transform="matrix(0.06172839506172839,0,0,0.06172839506172839,0,0)" xlink:href="#S"/><use transform="matrix(0.06172839506172839,0,0,0.06172839506172839,18.456790123456788,0)" xlink:href="#T"/><use transform="matrix(0.06172839506172839,0,0,0.06172839506172839,30.80246913580247,0)" xlink:href="#U"/><use transform="matrix(0.06172839506172839,0,0,0.06172839506172839,43.148148148148145,0)" xlink:href="#T"/><use transform="matrix(0.06172839506172839,0,0,0.06172839506172839,55.49382716049382,0)" xlink:href="#V"/><use transform="matrix(0.06172839506172839,0,0,0.06172839506172839,67.8395061728395,0)" xlink:href="#P"/><use transform="matrix(0.06172839506172839,0,0,0.06172839506172839,80.18518518518519,0)" xlink:href="#W"/><use transform="matrix(0.06172839506172839,0,0,0.06172839506172839,98.64197530864197,0)" xlink:href="#P"/><use transform="matrix(0.06172839506172839,0,0,0.06172839506172839,110.98765432098766,0)" xlink:href="#U"/><use transform="matrix(0.06172839506172839,0,0,0.06172839506172839,123.33333333333334,0)" xlink:href="#R"/></g><path fill="#3a414a" d="M185-189c-5-48-123-54-124 2 14 75 158 14 163 119 3 78-121 87-175 55-17-10-28-26-33-46l33-7c5 56 141 63 141-1 0-78-155-14-162-118-5-82 145-84 179-34 5 7 8 16 11 25" id="X"/><path fill="#3a414a" d="M179-190L93 31C79 59 56 82 12 73V49c39 6 53-20 64-50L1-190h34L92-34l54-156h33" id="Y"/><path fill="#3a414a" d="M135-143c-3-34-86-38-87 0 15 53 115 12 119 90S17 21 10-45l28-5c4 36 97 45 98 0-10-56-113-15-118-90-4-57 82-63 122-42 12 7 21 19 24 35" id="Z"/><g id="c"><use transform="matrix(0.06172839506172839,0,0,0.06172839506172839,0,0)" xlink:href="#X"/><use transform="matrix(0.06172839506172839,0,0,0.06172839506172839,14.814814814814813,0)" xlink:href="#Y"/><use transform="matrix(0.06172839506172839,0,0,0.06172839506172839,25.925925925925924,0)" xlink:href="#Z"/><use transform="matrix(0.06172839506172839,0,0,0.06172839506172839,37.03703703703704,0)" xlink:href="#R"/><use transform="matrix(0.06172839506172839,0,0,0.06172839506172839,43.20987654320988,0)" xlink:href="#P"/><use transform="matrix(0.06172839506172839,0,0,0.06172839506172839,55.55555555555556,0)" xlink:href="#W"/></g><path fill="#3a414a" d="M85-194c31 0 48 13 60 33l-1-100h32l1 261h-30c-2-10 0-23-3-31C134-8 116 4 85 4 32 4 16-35 15-94c0-66 23-100 70-100zm9 24c-40 0-46 34-46 75 0 40 6 74 45 74 42 0 51-32 51-76 0-42-9-74-50-73" id="aa"/><path fill="#3a414a" d="M24-231v-30h32v30H24zM24 0v-190h32V0H24" id="ab"/><path fill="#3a414a" d="M100-194c62-1 85 37 85 99 1 63-27 99-86 99S16-35 15-95c0-66 28-99 85-99zM99-20c44 1 53-31 53-75 0-43-8-75-51-75s-53 32-53 75 10 74 51 75" id="ac"/><g id="d"><use transform="matrix(0.06172839506172839,0,0,0.06172839506172839,0,0)" xlink:href="#N"/><use transform="matrix(0.06172839506172839,0,0,0.06172839506172839,14.814814814814813,0)" xlink:href="#aa"/><use transform="matrix(0.06172839506172839,0,0,0.06172839506172839,27.160493827160494,0)" xlink:href="#W"/><use transform="matrix(0.06172839506172839,0,0,0.06172839506172839,45.61728395061728,0)" xlink:href="#ab"/><use transform="matrix(0.06172839506172839,0,0,0.06172839506172839,50.49382716049382,0)" xlink:href="#U"/><use transform="matrix(0.06172839506172839,0,0,0.06172839506172839,62.8395061728395,0)" xlink:href="#ab"/><use transform="matrix(0.06172839506172839,0,0,0.06172839506172839,67.71604938271604,0)" xlink:href="#Z"/><use transform="matrix(0.06172839506172839,0,0,0.06172839506172839,78.82716049382715,0)" xlink:href="#R"/><use transform="matrix(0.06172839506172839,0,0,0.06172839506172839,84.99999999999999,0)" xlink:href="#Q"/><use transform="matrix(0.06172839506172839,0,0,0.06172839506172839,92.34567901234567,0)" xlink:href="#T"/><use transform="matrix(0.06172839506172839,0,0,0.06172839506172839,104.69135802469135,0)" xlink:href="#R"/><use transform="matrix(0.06172839506172839,0,0,0.06172839506172839,110.86419753086419,0)" xlink:href="#ac"/><use transform="matrix(0.06172839506172839,0,0,0.06172839506172839,123.20987654320987,0)" xlink:href="#Q"/></g><path d="M266 0h-40l-56-210L115 0H75L2-248h35L96-30l15-64 43-154h32l59 218 59-218h35" id="ad"/><path d="M141-36C126-15 110 5 73 4 37 3 15-17 15-53c-1-64 63-63 125-63 3-35-9-54-41-54-24 1-41 7-42 31l-33-3c5-37 33-52 76-52 45 0 72 20 72 64v82c-1 20 7 32 28 27v20c-31 9-61-2-59-35zM48-53c0 20 12 33 32 33 41-3 63-29 60-74-43 2-92-5-92 41" id="ae"/><path d="M59-47c-2 24 18 29 38 22v24C64 9 27 4 27-40v-127H5v-23h24l9-43h21v43h35v23H59v120" id="af"/><path d="M100-194c63 0 86 42 84 106H49c0 40 14 67 53 68 26 1 43-12 49-29l28 8c-11 28-37 45-77 45C44 4 14-33 15-96c1-61 26-98 85-98zm52 81c6-60-76-77-97-28-3 7-6 17-6 28h103" id="ag"/><path d="M114-163C36-179 61-72 57 0H25l-1-190h30c1 12-1 29 2 39 6-27 23-49 58-41v29" id="ah"/><g id="e"><use transform="matrix(0.05432111111111112,0,0,0.05432111111111112,0,0)" xlink:href="#ad"/><use transform="matrix(0.05432111111111112,0,0,0.05432111111111112,17.708682222222226,0)" xlink:href="#ae"/><use transform="matrix(0.05432111111111112,0,0,0.05432111111111112,28.572904444444447,0)" xlink:href="#af"/><use transform="matrix(0.05432111111111112,0,0,0.05432111111111112,34.00501555555556,0)" xlink:href="#ag"/><use transform="matrix(0.05432111111111112,0,0,0.05432111111111112,44.86923777777778,0)" xlink:href="#ah"/></g><path d="M190 0L58-211 59 0H30v-248h39L202-35l-2-213h31V0h-41" id="ai"/><path d="M206 0h-36l-40-164L89 0H53L-1-190h32L70-26l43-164h34l41 164 42-164h31" id="aj"/><path d="M100-194c62-1 85 37 85 99 1 63-27 99-86 99S16-35 15-95c0-66 28-99 85-99zM99-20c44 1 53-31 53-75 0-43-8-75-51-75s-53 32-53 75 10 74 51 75" id="ak"/><path d="M143 0L79-87 56-68V0H24v-261h32v163l83-92h37l-77 82L181 0h-38" id="al"/><path d="M135-143c-3-34-86-38-87 0 15 53 115 12 119 90S17 21 10-45l28-5c4 36 97 45 98 0-10-56-113-15-118-90-4-57 82-63 122-42 12 7 21 19 24 35" id="am"/><g id="f"><use transform="matrix(0.05432111111111112,0,0,0.05432111111111112,0,0)" xlink:href="#ai"/><use transform="matrix(0.05432111111111112,0,0,0.05432111111111112,14.06916777777778,0)" xlink:href="#ag"/><use transform="matrix(0.05432111111111112,0,0,0.05432111111111112,24.933390000000003,0)" xlink:href="#af"/><use transform="matrix(0.05432111111111112,0,0,0.05432111111111112,30.365501111111115,0)" xlink:href="#aj"/><use transform="matrix(0.05432111111111112,0,0,0.05432111111111112,44.43466888888889,0)" xlink:href="#ak"/><use transform="matrix(0.05432111111111112,0,0,0.05432111111111112,55.29889111111112,0)" xlink:href="#ah"/><use transform="matrix(0.05432111111111112,0,0,0.05432111111111112,61.76310333333334,0)" xlink:href="#al"/><use transform="matrix(0.05432111111111112,0,0,0.05432111111111112,71.54090333333335,0)" xlink:href="#am"/></g><path d="M140-251c81 0 123 46 123 126C263-46 219 4 140 4 59 4 17-45 17-125s42-126 123-126zm0 227c63 0 89-41 89-101s-29-99-89-99c-61 0-89 39-89 99S79-25 140-24" id="an"/><path d="M115-194c55 1 70 41 70 98S169 2 115 4C84 4 66-9 55-30l1 105H24l-1-265h31l2 30c10-21 28-34 59-34zm-8 174c40 0 45-34 45-75s-6-73-45-74c-42 0-51 32-51 76 0 43 10 73 51 73" id="ao"/><path d="M24-231v-30h32v30H24zM24 0v-190h32V0H24" id="ap"/><path d="M108 0H70L1-190h34L89-25l56-165h34" id="aq"/><g id="g"><use transform="matrix(0.05432111111111112,0,0,0.05432111111111112,0,0)" xlink:href="#an"/><use transform="matrix(0.05432111111111112,0,0,0.05432111111111112,15.209911111111113,0)" xlink:href="#ao"/><use transform="matrix(0.05432111111111112,0,0,0.05432111111111112,26.074133333333336,0)" xlink:href="#ag"/><use transform="matrix(0.05432111111111112,0,0,0.05432111111111112,36.93835555555556,0)" xlink:href="#ah"/><use transform="matrix(0.05432111111111112,0,0,0.05432111111111112,43.40256777777778,0)" xlink:href="#ae"/><use transform="matrix(0.05432111111111112,0,0,0.05432111111111112,54.26679000000001,0)" xlink:href="#af"/><use transform="matrix(0.05432111111111112,0,0,0.05432111111111112,59.69890111111112,0)" xlink:href="#ap"/><use transform="matrix(0.05432111111111112,0,0,0.05432111111111112,63.9902688888889,0)" xlink:href="#aq"/><use transform="matrix(0.05432111111111112,0,0,0.05432111111111112,73.7680688888889,0)" xlink:href="#ag"/></g><path fill="#3a414a" d="M212-179c-10-28-35-45-73-45-59 0-87 40-87 99 0 60 29 101 89 101 43 0 62-24 78-52l27 14C228-24 195 4 139 4 59 4 22-46 18-125c-6-104 99-153 187-111 19 9 31 26 39 46" id="ar"/><path fill="#3a414a" d="M234-2c-28 10-62 0-77-18C117 19 8 12 13-65c3-43 29-61 60-76-25-40-17-114 47-108 35 3 59 15 59 50 0 44-40 53-71 69 14 26 32 50 51 72 14-21 24-43 30-72l26 8c-9 33-21 57-38 82 13 13 33 22 57 15v23zM97-151c25-10 52-18 56-48-1-18-13-29-33-29-42 0-39 50-23 77zM42-66c-3 51 71 58 98 28-20-24-41-51-56-80-23 10-40 24-42 52" id="as"/><path fill="#3a414a" d="M160-131c35 5 61 23 61 61C221 17 115-2 30 0v-248c76 3 177-17 177 60 0 33-19 50-47 57zm-97-11c50-1 110 9 110-42 0-47-63-36-110-37v79zm0 115c55-2 124 14 124-45 0-56-70-42-124-44v89" id="at"/><g id="h"><use transform="matrix(0.06172839506172839,0,0,0.06172839506172839,0,0)" xlink:href="#ar"/><use transform="matrix(0.06172839506172839,0,0,0.06172839506172839,15.987654320987653,0)" xlink:href="#ar"/><use transform="matrix(0.06172839506172839,0,0,0.06172839506172839,31.975308641975307,0)" xlink:href="#as"/><use transform="matrix(0.06172839506172839,0,0,0.06172839506172839,46.79012345679012,0)" xlink:href="#at"/></g><path fill="#3a414a" d="M232-93c-1 65-40 97-104 97C67 4 28-28 28-90v-158h33c8 89-33 224 67 224 102 0 64-133 71-224h33v155" id="au"/><g id="i"><use transform="matrix(0.06172839506172839,0,0,0.06172839506172839,0,0)" xlink:href="#au"/><use transform="matrix(0.06172839506172839,0,0,0.06172839506172839,15.987654320987653,0)" xlink:href="#Z"/><use transform="matrix(0.06172839506172839,0,0,0.06172839506172839,27.098765432098766,0)" xlink:href="#P"/><use transform="matrix(0.06172839506172839,0,0,0.06172839506172839,39.44444444444444,0)" xlink:href="#Q"/></g><path d="M30-248c118-7 216 8 213 122C240-48 200 0 122 0H30v-248zM63-27c89 8 146-16 146-99s-60-101-146-95v194" id="av"/><g id="j"><use transform="matrix(0.05,0,0,0.05,0,0)" xlink:href="#av"/><use transform="matrix(0.05,0,0,0.05,12.950000000000001,0)" xlink:href="#ae"/><use transform="matrix(0.05,0,0,0.05,22.950000000000003,0)" xlink:href="#af"/><use transform="matrix(0.05,0,0,0.05,27.950000000000003,0)" xlink:href="#ae"/></g><path d="M33 0v-248h34V0H33" id="aw"/><path d="M117-194c89-4 53 116 60 194h-32v-121c0-31-8-49-39-48C34-167 62-67 57 0H25l-1-190h30c1 10-1 24 2 32 11-22 29-35 61-36" id="ax"/><path d="M177-190C167-65 218 103 67 71c-23-6-38-20-44-43l32-5c15 47 100 32 89-28v-30C133-14 115 1 83 1 29 1 15-40 15-95c0-56 16-97 71-98 29-1 48 16 59 35 1-10 0-23 2-32h30zM94-22c36 0 50-32 50-73 0-42-14-75-50-75-39 0-46 34-46 75s6 73 46 73" id="ay"/><g id="k"><use transform="matrix(0.05,0,0,0.05,0,0)" xlink:href="#aw"/><use transform="matrix(0.05,0,0,0.05,5,0)" xlink:href="#ax"/><use transform="matrix(0.05,0,0,0.05,15,0)" xlink:href="#af"/><use transform="matrix(0.05,0,0,0.05,20,0)" xlink:href="#ag"/><use transform="matrix(0.05,0,0,0.05,30,0)" xlink:href="#ay"/><use transform="matrix(0.05,0,0,0.05,40,0)" xlink:href="#ah"/><use transform="matrix(0.05,0,0,0.05,45.95,0)" xlink:href="#ae"/><use transform="matrix(0.05,0,0,0.05,55.95,0)" xlink:href="#af"/><use transform="matrix(0.05,0,0,0.05,60.95,0)" xlink:href="#ap"/><use transform="matrix(0.05,0,0,0.05,64.9,0)" xlink:href="#ak"/><use transform="matrix(0.05,0,0,0.05,74.9,0)" xlink:href="#ax"/></g><path d="M30 0v-248h33v221h125V0H30" id="az"/><g id="l"><use transform="matrix(0.05,0,0,0.05,0,0)" xlink:href="#az"/><use transform="matrix(0.05,0,0,0.05,10,0)" xlink:href="#ag"/><use transform="matrix(0.05,0,0,0.05,20,0)" xlink:href="#ae"/><use transform="matrix(0.05,0,0,0.05,30,0)" xlink:href="#al"/><use transform="matrix(0.05,0,0,0.05,39,0)" xlink:href="#ae"/><use transform="matrix(0.05,0,0,0.05,49,0)" xlink:href="#ay"/><use transform="matrix(0.05,0,0,0.05,59,0)" xlink:href="#ag"/></g><path d="M24 0v-261h32V0H24" id="aA"/><g id="m"><use transform="matrix(0.05,0,0,0.05,0,0)" xlink:href="#ae"/><use transform="matrix(0.05,0,0,0.05,10,0)" xlink:href="#aA"/><use transform="matrix(0.05,0,0,0.05,13.949999999999998,0)" xlink:href="#ag"/><use transform="matrix(0.05,0,0,0.05,23.95,0)" xlink:href="#ah"/><use transform="matrix(0.05,0,0,0.05,29.899999999999995,0)" xlink:href="#af"/></g><path d="M197 0v-115H63V0H30v-248h33v105h134v-105h34V0h-34" id="aB"/><path d="M106-169C34-169 62-67 57 0H25v-261h32l-1 103c12-21 28-36 61-36 89 0 53 116 60 194h-32v-121c2-32-8-49-39-48" id="aC"/><g id="n"><use transform="matrix(0.05,0,0,0.05,0,0)" xlink:href="#aB"/><use transform="matrix(0.05,0,0,0.05,12.950000000000001,0)" xlink:href="#ap"/><use transform="matrix(0.05,0,0,0.05,16.900000000000002,0)" xlink:href="#ay"/><use transform="matrix(0.05,0,0,0.05,26.900000000000002,0)" xlink:href="#aC"/></g><path d="M212-179c-10-28-35-45-73-45-59 0-87 40-87 99 0 60 29 101 89 101 43 0 62-24 78-52l27 14C228-24 195 4 139 4 59 4 22-46 18-125c-6-104 99-153 187-111 19 9 31 26 39 46" id="aD"/><path d="M84 4C-5 8 30-112 23-190h32v120c0 31 7 50 39 49 72-2 45-101 50-169h31l1 190h-30c-1-10 1-25-2-33-11 22-28 36-60 37" id="aE"/><path d="M210-169c-67 3-38 105-44 169h-31v-121c0-29-5-50-35-48C34-165 62-65 56 0H25l-1-190h30c1 10-1 24 2 32 10-44 99-50 107 0 11-21 27-35 58-36 85-2 47 119 55 194h-31v-121c0-29-5-49-35-48" id="aF"/><g id="o"><use transform="matrix(0.05,0,0,0.05,0,0)" xlink:href="#aD"/><use transform="matrix(0.05,0,0,0.05,12.950000000000001,0)" xlink:href="#ak"/><use transform="matrix(0.05,0,0,0.05,22.950000000000003,0)" xlink:href="#ax"/><use transform="matrix(0.05,0,0,0.05,32.95,0)" xlink:href="#am"/><use transform="matrix(0.05,0,0,0.05,41.95,0)" xlink:href="#aE"/><use transform="matrix(0.05,0,0,0.05,51.95,0)" xlink:href="#aF"/><use transform="matrix(0.05,0,0,0.05,66.9,0)" xlink:href="#ao"/><use transform="matrix(0.05,0,0,0.05,76.9,0)" xlink:href="#af"/><use transform="matrix(0.05,0,0,0.05,81.9,0)" xlink:href="#ap"/><use transform="matrix(0.05,0,0,0.05,85.85000000000001,0)" xlink:href="#ak"/><use transform="matrix(0.05,0,0,0.05,95.85000000000001,0)" xlink:href="#ax"/></g><g id="p"><use transform="matrix(0.05,0,0,0.05,0,0)" xlink:href="#az"/><use transform="matrix(0.05,0,0,0.05,10,0)" xlink:href="#ak"/><use transform="matrix(0.05,0,0,0.05,20,0)" xlink:href="#aj"/></g><path d="M160-131c35 5 61 23 61 61C221 17 115-2 30 0v-248c76 3 177-17 177 60 0 33-19 50-47 57zm-97-11c50-1 110 9 110-42 0-47-63-36-110-37v79zm0 115c55-2 124 14 124-45 0-56-70-42-124-44v89" id="aG"/><path d="M179-190L93 31C79 59 56 82 12 73V49c39 6 53-20 64-50L1-190h34L92-34l54-156h33" id="aH"/><g id="q"><use transform="matrix(0.05,0,0,0.05,0,0)" xlink:href="#aG"/><use transform="matrix(0.05,0,0,0.05,12,0)" xlink:href="#ae"/><use transform="matrix(0.05,0,0,0.05,22,0)" xlink:href="#af"/><use transform="matrix(0.05,0,0,0.05,27,0)" xlink:href="#af"/><use transform="matrix(0.05,0,0,0.05,32,0)" xlink:href="#ag"/><use transform="matrix(0.05,0,0,0.05,42,0)" xlink:href="#ah"/><use transform="matrix(0.05,0,0,0.05,47.95,0)" xlink:href="#aH"/></g><g id="r"><use transform="matrix(0.05,0,0,0.05,0,0)" xlink:href="#ai"/><use transform="matrix(0.05,0,0,0.05,12.950000000000001,0)" xlink:href="#ak"/></g><path d="M240 0l2-218c-23 76-54 145-80 218h-23L58-218 59 0H30v-248h44l77 211c21-75 51-140 76-211h43V0h-30" id="aI"/><g id="s"><use transform="matrix(0.05,0,0,0.05,0,0)" xlink:href="#aI"/><use transform="matrix(0.05,0,0,0.05,14.950000000000001,0)" xlink:href="#ag"/><use transform="matrix(0.05,0,0,0.05,24.950000000000003,0)" xlink:href="#af"/><use transform="matrix(0.05,0,0,0.05,29.950000000000003,0)" xlink:href="#ag"/><use transform="matrix(0.05,0,0,0.05,39.95,0)" xlink:href="#ah"/></g><path d="M127-220V0H93v-220H8v-28h204v28h-85" id="aJ"/><g id="t"><use transform="matrix(0.05,0,0,0.05,0,0)" xlink:href="#aJ"/><use transform="matrix(0.05,0,0,0.05,8.950000000000001,0)" xlink:href="#ae"/><use transform="matrix(0.05,0,0,0.05,18.950000000000003,0)" xlink:href="#aF"/><use transform="matrix(0.05,0,0,0.05,33.900000000000006,0)" xlink:href="#ao"/><use transform="matrix(0.05,0,0,0.05,43.900000000000006,0)" xlink:href="#ag"/><use transform="matrix(0.05,0,0,0.05,53.900000000000006,0)" xlink:href="#ah"/></g><path d="M96-169c-40 0-48 33-48 73s9 75 48 75c24 0 41-14 43-38l32 2c-6 37-31 61-74 61-59 0-76-41-82-99-10-93 101-131 147-64 4 7 5 14 7 22l-32 3c-4-21-16-35-41-35" id="aK"/><g id="u"><use transform="matrix(0.05,0,0,0.05,0,0)" xlink:href="#aG"/><use transform="matrix(0.05,0,0,0.05,12,0)" xlink:href="#ae"/><use transform="matrix(0.05,0,0,0.05,22,0)" xlink:href="#aK"/><use transform="matrix(0.05,0,0,0.05,31,0)" xlink:href="#al"/></g><path d="M63-220v92h138v28H63V0H30v-248h175v28H63" id="aL"/><g id="v"><use transform="matrix(0.05,0,0,0.05,0,0)" xlink:href="#aL"/><use transform="matrix(0.05,0,0,0.05,10.950000000000001,0)" xlink:href="#aA"/><use transform="matrix(0.05,0,0,0.05,14.9,0)" xlink:href="#ak"/><use transform="matrix(0.05,0,0,0.05,24.900000000000002,0)" xlink:href="#aj"/></g><path d="M205 0l-28-72H64L36 0H1l101-248h38L239 0h-34zm-38-99l-47-123c-12 45-31 82-46 123h93" id="aM"/><g id="w"><use transform="matrix(0.05,0,0,0.05,0,0)" xlink:href="#aM"/><use transform="matrix(0.05,0,0,0.05,12,0)" xlink:href="#aA"/><use transform="matrix(0.05,0,0,0.05,15.949999999999998,0)" xlink:href="#ag"/><use transform="matrix(0.05,0,0,0.05,25.950000000000003,0)" xlink:href="#ah"/><use transform="matrix(0.05,0,0,0.05,31.899999999999995,0)" xlink:href="#af"/></g><g id="x"><use transform="matrix(0.05,0,0,0.05,0,0)" xlink:href="#ai"/><use transform="matrix(0.05,0,0,0.05,12.950000000000001,0)" xlink:href="#ak"/></g><path d="M185-189c-5-48-123-54-124 2 14 75 158 14 163 119 3 78-121 87-175 55-17-10-28-26-33-46l33-7c5 56 141 63 141-1 0-78-155-14-162-118-5-82 145-84 179-34 5 7 8 16 11 25" id="aN"/><g id="y"><use transform="matrix(0.05,0,0,0.05,0,0)" xlink:href="#aN"/><use transform="matrix(0.05,0,0,0.05,12,0)" xlink:href="#aH"/><use transform="matrix(0.05,0,0,0.05,21,0)" xlink:href="#am"/><use transform="matrix(0.05,0,0,0.05,30,0)" xlink:href="#af"/><use transform="matrix(0.05,0,0,0.05,35,0)" xlink:href="#ag"/><use transform="matrix(0.05,0,0,0.05,45,0)" xlink:href="#aF"/></g><g id="z"><use transform="matrix(0.05,0,0,0.05,0,0)" xlink:href="#aN"/><use transform="matrix(0.05,0,0,0.05,12,0)" xlink:href="#ag"/><use transform="matrix(0.05,0,0,0.05,22,0)" xlink:href="#af"/><use transform="matrix(0.05,0,0,0.05,27,0)" xlink:href="#af"/><use transform="matrix(0.05,0,0,0.05,32,0)" xlink:href="#ap"/><use transform="matrix(0.05,0,0,0.05,35.95,0)" xlink:href="#ax"/><use transform="matrix(0.05,0,0,0.05,45.95,0)" xlink:href="#ay"/><use transform="matrix(0.05,0,0,0.05,55.95,0)" xlink:href="#am"/></g><g id="A"><use transform="matrix(0.05,0,0,0.05,0,0)" xlink:href="#aN"/><use transform="matrix(0.05,0,0,0.05,12,0)" xlink:href="#ag"/><use transform="matrix(0.05,0,0,0.05,22,0)" xlink:href="#aK"/><use transform="matrix(0.05,0,0,0.05,31,0)" xlink:href="#aE"/><use transform="matrix(0.05,0,0,0.05,41,0)" xlink:href="#ah"/><use transform="matrix(0.05,0,0,0.05,46.95,0)" xlink:href="#ap"/><use transform="matrix(0.05,0,0,0.05,50.900000000000006,0)" xlink:href="#af"/><use transform="matrix(0.05,0,0,0.05,55.900000000000006,0)" xlink:href="#aH"/></g><path d="M30-248c87 1 191-15 191 75 0 78-77 80-158 76V0H30v-248zm33 125c57 0 124 11 124-50 0-59-68-47-124-48v98" id="aO"/><path d="M101-234c-31-9-42 10-38 44h38v23H63V0H32v-167H5v-23h27c-7-52 17-82 69-68v24" id="aP"/><g id="B"><use transform="matrix(0.05,0,0,0.05,0,0)" xlink:href="#aO"/><use transform="matrix(0.05,0,0,0.05,12,0)" xlink:href="#ag"/><use transform="matrix(0.05,0,0,0.05,22,0)" xlink:href="#ah"/><use transform="matrix(0.05,0,0,0.05,27.950000000000003,0)" xlink:href="#aP"/><use transform="matrix(0.05,0,0,0.05,32.95,0)" xlink:href="#ak"/><use transform="matrix(0.05,0,0,0.05,42.95,0)" xlink:href="#ah"/><use transform="matrix(0.05,0,0,0.05,48.900000000000006,0)" xlink:href="#aF"/><use transform="matrix(0.05,0,0,0.05,63.85,0)" xlink:href="#ae"/><use transform="matrix(0.05,0,0,0.05,73.85000000000001,0)" xlink:href="#ax"/><use transform="matrix(0.05,0,0,0.05,83.85000000000001,0)" xlink:href="#aK"/><use transform="matrix(0.05,0,0,0.05,92.85000000000001,0)" xlink:href="#ag"/></g><path d="M143 4C61 4 22-44 18-125c-5-107 100-154 193-111 17 8 29 25 37 43l-32 9c-13-25-37-40-76-40-61 0-88 39-88 99 0 61 29 100 91 101 35 0 62-11 79-27v-45h-74v-28h105v86C228-13 192 4 143 4" id="aQ"/><g id="C"><use transform="matrix(0.05,0,0,0.05,0,0)" xlink:href="#aQ"/><use transform="matrix(0.05,0,0,0.05,14,0)" xlink:href="#ag"/><use transform="matrix(0.05,0,0,0.05,24,0)" xlink:href="#ax"/><use transform="matrix(0.05,0,0,0.05,34,0)" xlink:href="#ag"/><use transform="matrix(0.05,0,0,0.05,44,0)" xlink:href="#ah"/><use transform="matrix(0.05,0,0,0.05,49.95,0)" xlink:href="#ae"/><use transform="matrix(0.05,0,0,0.05,59.95,0)" xlink:href="#af"/><use transform="matrix(0.05,0,0,0.05,64.95,0)" xlink:href="#ag"/></g><path d="M233-177c-1 41-23 64-60 70L243 0h-38l-65-103H63V0H30v-248c88 3 205-21 203 71zM63-129c60-2 137 13 137-47 0-61-80-42-137-45v92" id="aR"/><g id="D"><use transform="matrix(0.05,0,0,0.05,0,0)" xlink:href="#aR"/><use transform="matrix(0.05,0,0,0.05,12.950000000000001,0)" xlink:href="#ag"/><use transform="matrix(0.05,0,0,0.05,22.950000000000003,0)" xlink:href="#ao"/><use transform="matrix(0.05,0,0,0.05,32.95,0)" xlink:href="#ak"/><use transform="matrix(0.05,0,0,0.05,42.95,0)" xlink:href="#ah"/><use transform="matrix(0.05,0,0,0.05,48.900000000000006,0)" xlink:href="#af"/><use transform="matrix(0.05,0,0,0.05,53.900000000000006,0)" xlink:href="#am"/></g><g id="E"><use transform="matrix(0.05,0,0,0.05,0,0)" xlink:href="#aI"/><use transform="matrix(0.05,0,0,0.05,14.950000000000001,0)" xlink:href="#ae"/><use transform="matrix(0.05,0,0,0.05,24.950000000000003,0)" xlink:href="#ax"/><use transform="matrix(0.05,0,0,0.05,34.95,0)" xlink:href="#ae"/><use transform="matrix(0.05,0,0,0.05,44.95,0)" xlink:href="#ay"/><use transform="matrix(0.05,0,0,0.05,54.95,0)" xlink:href="#ag"/></g><g id="F"><use transform="matrix(0.05,0,0,0.05,0,0)" xlink:href="#aM"/><use transform="matrix(0.05,0,0,0.05,12,0)" xlink:href="#aA"/><use transform="matrix(0.05,0,0,0.05,15.949999999999998,0)" xlink:href="#ag"/><use transform="matrix(0.05,0,0,0.05,25.950000000000003,0)" xlink:href="#ah"/><use transform="matrix(0.05,0,0,0.05,31.899999999999995,0)" xlink:href="#af"/><use transform="matrix(0.05,0,0,0.05,36.9,0)" xlink:href="#am"/></g><path d="M30 0v-248h187v28H63v79h144v27H63v87h162V0H30" id="aS"/><path d="M141 0L90-78 38 0H4l68-98-65-92h35l48 74 47-74h35l-64 92 68 98h-35" id="aT"/><g id="G"><use transform="matrix(0.05,0,0,0.05,0,0)" xlink:href="#aS"/><use transform="matrix(0.05,0,0,0.05,12,0)" xlink:href="#aT"/><use transform="matrix(0.05,0,0,0.05,21,0)" xlink:href="#ap"/><use transform="matrix(0.05,0,0,0.05,24.95,0)" xlink:href="#af"/></g><g id="H"><use transform="matrix(0.05,0,0,0.05,0,0)" xlink:href="#aM"/><use transform="matrix(0.05,0,0,0.05,12,0)" xlink:href="#ao"/><use transform="matrix(0.05,0,0,0.05,22,0)" xlink:href="#ao"/><use transform="matrix(0.05,0,0,0.05,32,0)" xlink:href="#aA"/><use transform="matrix(0.05,0,0,0.05,35.95,0)" xlink:href="#ap"/><use transform="matrix(0.05,0,0,0.05,39.900000000000006,0)" xlink:href="#aK"/><use transform="matrix(0.05,0,0,0.05,48.900000000000006,0)" xlink:href="#ae"/><use transform="matrix(0.05,0,0,0.05,58.900000000000006,0)" xlink:href="#af"/><use transform="matrix(0.05,0,0,0.05,63.900000000000006,0)" xlink:href="#ap"/><use transform="matrix(0.05,0,0,0.05,67.85000000000001,0)" xlink:href="#ak"/><use transform="matrix(0.05,0,0,0.05,77.85000000000001,0)" xlink:href="#ax"/></g><g id="I"><use transform="matrix(0.05,0,0,0.05,0,0)" xlink:href="#aS"/><use transform="matrix(0.05,0,0,0.05,12,0)" xlink:href="#aT"/><use transform="matrix(0.05,0,0,0.05,21,0)" xlink:href="#ap"/><use transform="matrix(0.05,0,0,0.05,24.95,0)" xlink:href="#am"/><use transform="matrix(0.05,0,0,0.05,33.95,0)" xlink:href="#af"/><use transform="matrix(0.05,0,0,0.05,38.95,0)" xlink:href="#ap"/><use transform="matrix(0.05,0,0,0.05,42.900000000000006,0)" xlink:href="#ax"/><use transform="matrix(0.05,0,0,0.05,52.900000000000006,0)" xlink:href="#ay"/></g><g id="J"><use transform="matrix(0.05,0,0,0.05,0,0)" xlink:href="#aD"/><use transform="matrix(0.05,0,0,0.05,12.950000000000001,0)" xlink:href="#ah"/><use transform="matrix(0.05,0,0,0.05,18.900000000000002,0)" xlink:href="#ag"/><use transform="matrix(0.05,0,0,0.05,28.900000000000002,0)" xlink:href="#ae"/><use transform="matrix(0.05,0,0,0.05,38.900000000000006,0)" xlink:href="#af"/><use transform="matrix(0.05,0,0,0.05,43.900000000000006,0)" xlink:href="#ag"/></g><g id="K"><use transform="matrix(0.05,0,0,0.05,0,0)" xlink:href="#aI"/><use transform="matrix(0.05,0,0,0.05,14.950000000000001,0)" xlink:href="#ae"/><use transform="matrix(0.05,0,0,0.05,24.950000000000003,0)" xlink:href="#ap"/><use transform="matrix(0.05,0,0,0.05,28.900000000000002,0)" xlink:href="#ax"/><use transform="matrix(0.05,0,0,0.05,38.900000000000006,0)" xlink:href="#af"/><use transform="matrix(0.05,0,0,0.05,43.900000000000006,0)" xlink:href="#ag"/><use transform="matrix(0.05,0,0,0.05,53.900000000000006,0)" xlink:href="#ax"/><use transform="matrix(0.05,0,0,0.05,63.900000000000006,0)" xlink:href="#ae"/><use transform="matrix(0.05,0,0,0.05,73.9,0)" xlink:href="#ax"/><use transform="matrix(0.05,0,0,0.05,83.9,0)" xlink:href="#aK"/><use transform="matrix(0.05,0,0,0.05,92.9,0)" xlink:href="#ag"/></g><path d="M153-248C145-148 188 4 80 4 36 3 13-21 6-62l32-5c4 25 16 42 43 43 27 0 39-20 39-49v-147H72v-28h81" id="aU"/><path d="M115-194c53 0 69 39 70 98 0 66-23 100-70 100C84 3 66-7 56-30L54 0H23l1-261h32v101c10-23 28-34 59-34zm-8 174c40 0 45-34 45-75 0-40-5-75-45-74-42 0-51 32-51 76 0 43 10 73 51 73" id="aV"/><g id="L"><use transform="matrix(0.05,0,0,0.05,0,0)" xlink:href="#aU"/><use transform="matrix(0.05,0,0,0.05,9,0)" xlink:href="#ak"/><use transform="matrix(0.05,0,0,0.05,19,0)" xlink:href="#aV"/></g><path d="M85-194c31 0 48 13 60 33l-1-100h32l1 261h-30c-2-10 0-23-3-31C134-8 116 4 85 4 32 4 16-35 15-94c0-66 23-100 70-100zm9 24c-40 0-46 34-46 75 0 40 6 74 45 74 42 0 51-32 51-76 0-42-9-74-50-73" id="aW"/><g id="M"><use transform="matrix(0.05,0,0,0.05,0,0)" xlink:href="#aD"/><use transform="matrix(0.05,0,0,0.05,12.950000000000001,0)" xlink:href="#ak"/><use transform="matrix(0.05,0,0,0.05,22.950000000000003,0)" xlink:href="#aF"/><use transform="matrix(0.05,0,0,0.05,37.900000000000006,0)" xlink:href="#ao"/><use transform="matrix(0.05,0,0,0.05,47.900000000000006,0)" xlink:href="#aA"/><use transform="matrix(0.05,0,0,0.05,51.85,0)" xlink:href="#ag"/><use transform="matrix(0.05,0,0,0.05,61.85,0)" xlink:href="#af"/><use transform="matrix(0.05,0,0,0.05,66.85000000000001,0)" xlink:href="#ag"/><use transform="matrix(0.05,0,0,0.05,76.85000000000001,0)" xlink:href="#aW"/></g></defs></g></svg>